<svg width="429" height="300" viewBox="0 0 429 300" fill="none" xmlns="http://www.w3.org/2000/svg">
<g filter="url(#filter0_d)">
<path d="M276.186 122.396C276.186 122.396 264.986 134.649 262.886 137.282C260.786 139.915 258.505 152.042 258.505 152.042L263.586 158.526C263.586 158.526 271.118 155.907 271.986 154.507C272.854 153.106 285.286 141.385 285.818 139.102C286.092 136.369 286.092 133.615 285.818 130.882L276.186 122.396Z" fill="#D86C30"/>
<path d="M236.455 160.557C236.455 160.557 256.404 188.564 258.854 190.665C261.304 192.765 270.054 202.218 270.054 202.218C270.054 202.218 287.553 230.225 290.353 234.076C293.153 237.927 297.003 249.48 306.803 250.531C316.603 251.581 307.503 227.775 306.803 226.374C306.103 224.974 299.453 213.771 299.453 213.771L273.89 175.961L264.286 152.855L259.596 145.503L236.455 160.557Z" fill="#DD7947"/>
<path fill-rule="evenodd" clip-rule="evenodd" d="M267.856 163.372C267.24 154.62 258.505 144.635 258.505 144.635C259.615 149.369 266.333 160.781 267.637 162.996C267.78 163.238 267.858 163.371 267.856 163.372ZM279.078 191.135C281.254 177.109 281.853 173.247 274.772 157.868C274.439 161.884 273.913 162.511 273.545 162.95C273.139 163.433 272.924 163.689 273.372 168.007C276.396 177.585 273.246 190.455 270.11 202.204C270.446 202.82 272.336 206.209 272.91 205.929C273.742 205.516 274.48 204.027 275.216 202.541C275.929 201.103 276.64 199.669 277.432 199.221C277.911 199.011 278.276 198.603 278.432 198.104C278.588 197.604 278.519 197.061 278.244 196.616C278.537 194.62 278.819 192.806 279.078 191.135Z" fill="#974C02"/>
<path d="M256.796 151.636C254.164 161.257 245.275 163.148 237.603 163.176C243.889 160.375 250.44 154.199 256.796 151.636Z" fill="#984B01"/>
<path d="M102.534 89.4177C102.534 89.4177 96.4582 110.843 94.4002 112.244C92.3423 113.644 57.6092 153.205 55.5092 154.605C53.4093 156.005 23.31 177.711 23.31 177.711C23.31 177.711 21.9101 180.512 25.06 179.462C28.2099 178.411 41.5096 169.309 47.8094 174.21L46.4094 184.713C46.4094 184.713 46.7594 187.514 50.6093 180.512C54.4592 173.51 61.4591 159.156 69.8589 156.355C78.2586 153.555 91.6003 141.161 96.8082 138.781C102.016 136.4 105.558 136.05 106.608 132.899C107.658 129.748 125.507 107.342 125.507 105.592C125.507 103.842 111.984 97.4279 102.534 89.4177Z" fill="#E5844E"/>
<path d="M148.999 132.199C148.999 132.199 123.099 153.555 121.35 162.657C120.955 171.443 122.633 180.198 126.249 188.214C126.249 188.214 141.299 222.523 140.249 234.426C140.249 234.426 144.099 238.109 117.15 254.732C115.862 255.516 116.8 260.333 120.65 259.633C120.65 259.633 136.749 251.231 140.599 252.281C144.517 253.054 148.506 253.406 152.499 253.331C153.899 253.331 164.048 250.53 159.149 243.529C159.149 243.529 153.899 227.074 154.249 221.123C154.599 215.171 159.149 204.318 153.199 185.273C153.199 185.273 153.549 172.11 155.299 171.409C157.049 170.709 175.948 164.408 175.948 164.408L148.999 132.199Z" fill="#DD7947"/>
<path d="M102.058 90.5385C102.058 90.5385 115.974 62.7271 131.374 66.6201C146.773 70.5131 149.573 58.736 149.573 58.736C149.573 58.736 178.398 48.1772 192.398 59.0301C192.398 59.0301 216.547 74.0841 221.797 85.6372C221.797 85.6372 248.047 109.093 250.846 112.944C253.646 116.795 267.996 135 263.446 144.803L253.996 154.605C253.996 154.605 247.137 171.648 242.937 170.542C238.737 169.435 222.819 163.022 220.019 160.921C217.219 158.821 201.47 147.618 201.47 147.618C201.47 147.618 183.27 166.873 174.87 165.122L147.207 132.55C147.207 132.55 157.707 118.546 163.307 117.146C163.307 117.146 143.007 96.8401 140.557 95.4398C138.107 94.0394 132.507 94.7396 131.458 96.49C130.408 98.2405 125.858 106.993 125.858 106.993L102.058 90.5385Z" fill="#0F6698"/>
<path fill-rule="evenodd" clip-rule="evenodd" d="M301.329 152.504L325.59 141.302L340.052 177.249C340.052 177.249 321.404 185.175 315.328 185.259C309.252 185.343 301.791 185.259 301.791 185.259L299.929 210.144C299.634 214.618 293.287 226.666 288.26 236.209C285.153 242.108 282.549 247.049 282.191 248.654C281.253 252.855 283.591 266.397 283.591 266.397C290.591 277.6 277.053 279 273.889 279C272.319 279 268.492 277.507 264.635 276.003C260.719 274.476 256.773 272.936 255.13 272.936C254.007 272.936 251.445 273.38 248.416 273.904C242.646 274.902 235.181 276.193 232.73 275.275C228.992 273.875 227.13 270.136 228.04 267.335C228.95 264.534 253.73 257.532 253.73 257.532C263.992 253.793 268.191 239.328 268.191 239.328C272.853 233.726 273.889 171.171 273.889 171.171C277.263 152.042 301.329 152.504 301.329 152.504ZM345.651 208.057L341.689 174.91L369.829 165.892L360.547 228.909C360.547 228.909 364.971 239.188 362.857 241.624C360.085 244.831 351.153 241.162 346.253 238.361C342.769 236.509 339.068 235.097 335.235 234.16C335.235 234.16 325.086 231.275 322.916 228.909C319.808 225.534 345.651 225.324 345.651 225.324V208.057Z" fill="#DF7936"/>
<path d="M341.76 175.485C345.96 175.345 348.76 175.485 354.541 175.485C349.544 178.579 345.89 180.498 342.222 179.378C342.194 177.557 341.802 177.249 341.76 175.485Z" fill="#9B4F09"/>
<path d="M244.854 98.2401C244.854 98.2401 248.06 113.952 261.654 117.145C261.654 117.145 270.796 121.346 278.454 119.246C278.454 119.246 291.053 101.993 287.203 98.2401C283.354 94.4871 273.89 85.4267 273.89 85.4267C273.89 85.4267 269.27 76.8844 261.612 81.0855C253.954 85.2866 244.854 98.2401 244.854 98.2401Z" fill="#E5844E"/>
<path d="M306.453 128.698V135.7C306.453 135.7 287.903 132.899 285.103 132.199C282.303 131.499 274.337 123.265 274.337 123.265C282.171 112.61 285.578 99.3361 283.843 86.2247C283.843 86.2247 312.948 80.1611 371.271 101.629C371.271 101.629 406.534 114.414 411 135.7C412.694 143.724 408.3 163.275 391.5 167L340.052 177.249L325.59 141.301L328.502 135.35L306.453 128.698Z" fill="#C1272D"/>
<path d="M256.054 88.7876C256.054 88.7876 250.454 99.2904 249.404 101.041C248.788 102.077 248.2 103.968 246.996 104.29C246.156 104.514 244.812 103.519 243.804 102.791C241.354 101.041 235.404 95.0892 243.804 84.2364C243.804 84.2364 250.804 70.5827 271.453 76.1842C271.453 76.1842 278.803 78.6349 280.553 81.7857C281.801 84.1686 282.873 86.6399 283.759 89.1797L283.101 96.5036C280.779 96.6253 278.496 95.8707 276.703 94.3891C273.903 91.9384 271.453 87.7373 269.354 87.3872C267.254 87.0371 257.832 85.4687 256.054 88.7876Z" fill="#000700"/>
<path d="M285.103 132.199L283.927 150.404L264.328 161.369C264.328 161.369 243.496 168.609 242.334 168.609C241.172 168.609 233.486 167.208 232.296 165.808C231.596 165.038 229.314 165.346 229.314 165.346C229.314 165.346 227.914 181.142 238.372 181.842C238.372 181.842 258.56 179.924 270.109 176.073L296.247 171.353L303.009 165.752L306.452 133.837L285.103 132.199Z" fill="#D86C30"/>
<path d="M280.904 97.751C283.03 97.751 284.754 95.1175 284.754 91.8689C284.754 88.6203 283.03 85.9868 280.904 85.9868C278.777 85.9868 277.053 88.6203 277.053 91.8689C277.053 95.1175 278.777 97.751 280.904 97.751Z" fill="#E5844E"/>
<path d="M146.168 69.1439C151.215 65.6763 151.785 57.7389 147.441 51.4153C143.096 45.0917 135.483 42.7764 130.436 46.244C125.388 49.7116 124.819 57.649 129.163 63.9726C133.507 70.2963 141.121 72.6115 146.168 69.1439Z" fill="#DD7947"/>
<path d="M136.357 67.194C145.666 67.194 153.212 57.1375 153.212 44.7321C153.212 32.3268 145.666 22.2703 136.357 22.2703C127.048 22.2703 119.501 32.3268 119.501 44.7321C119.501 57.1375 127.048 67.194 136.357 67.194Z" fill="#E5844E"/>
<path d="M142.475 167.251C135.027 170.051 128.364 168.343 122.246 163.708C128.923 165.276 135.839 165.43 142.475 167.251Z" fill="#984B01"/>
<path d="M302.309 185.651C295.31 187.668 289.402 185.329 284.11 180.764C290.396 181.338 295.996 184.895 302.309 185.651Z" fill="#9D5005"/>
<path fill-rule="evenodd" clip-rule="evenodd" d="M152.387 79.9089C166.387 84.6562 180.75 87.4009 195.604 86.5607C179.938 92.8904 165.491 90.9859 152.387 79.9089ZM160.325 106.712L159.975 108.113C170.195 109.219 179 106.684 185.426 97.8621C179.686 101.137 173.416 102.916 167.177 104.686C164.879 105.338 162.586 105.989 160.325 106.712Z" fill="#06557C"/>
<path fill-rule="evenodd" clip-rule="evenodd" d="M381.729 115.632C368.598 108.784 354.864 103.855 340.052 102.399C356.502 98.5895 370.488 102.693 381.729 115.632ZM329.721 134.971L329.371 136.372C339.59 137.492 348.396 134.943 354.822 126.121C349.082 129.396 342.811 131.175 336.573 132.945C334.275 133.597 331.982 134.247 329.721 134.971Z" fill="#B21924"/>
<path d="M157.511 40.1247C152.289 17.6068 133.236 21.4438 133.236 21.4438C133.236 21.4438 131.29 20.7856 134.468 19.2592C128.686 17.7888 125.088 23.0542 125.088 23.0542C125.088 23.0542 123.8 23.0962 123.8 20.8696C122.4 21.0657 123.8 24.9447 123.8 24.9447C123.8 24.9447 119.726 25.0427 118.774 24.3846C118.2 25.897 122.008 25.6029 123.086 26.009C104.018 27.3393 120.286 53.4143 120.286 51.3417C117.486 39.1025 124.262 34.6493 124.262 34.6493C124.262 34.6493 130.1 40.4608 134.748 40.0127C129.82 38.1082 130.772 37.212 130.772 37.212C136.111 37.4701 141.435 36.4625 146.311 34.2712C149.545 34.4112 152.191 41.3711 152.947 50.0254C156.531 47.4347 155.607 40.2228 155.607 40.2228C155.607 40.2228 158.169 42.3093 157.497 40.2228L157.511 40.1247Z" fill="#161719"/>
<path d="M189.794 109.023C189.794 109.023 204.255 129.72 221.993 138.78C221.993 138.78 242.53 164.645 244.392 168.846C246.254 173.048 250.454 181.156 251.854 185.273C253.254 189.39 254.654 182.612 254.654 182.612C254.654 182.612 260.716 193.983 262.116 197.512C263.516 201.041 269.256 189.376 264.286 174.91L253.996 154.605C253.996 154.605 247.234 139.985 244.896 138.78C242.558 137.576 236.958 116.571 233.697 114.232C230.435 111.893 212.697 92.2881 212.697 92.2881L189.794 109.023Z" fill="#E5844E"/>
</g>
<defs>
<filter id="filter0_d" x="0" y="0" width="428.338" height="300" filterUnits="userSpaceOnUse" color-interpolation-filters="sRGB">
<feFlood flood-opacity="0" result="BackgroundImageFix"/>
<feColorMatrix in="SourceAlpha" type="matrix" values="0 0 0 0 0 0 0 0 0 0 0 0 0 0 0 0 0 0 127 0"/>
<feOffset dx="-3" dy="1"/>
<feGaussianBlur stdDeviation="10"/>
<feColorMatrix type="matrix" values="0 0 0 0 0 0 0 0 0 0 0 0 0 0 0 0 0 0 0.15 0"/>
<feBlend mode="normal" in2="BackgroundImageFix" result="effect1_dropShadow"/>
<feBlend mode="normal" in="SourceGraphic" in2="effect1_dropShadow" result="shape"/>
</filter>
</defs>
</svg>
